<svg width="18" height="17" viewBox="0 0 18 17" fill="none" xmlns="http://www.w3.org/2000/svg">
<path d="M0 0.5625C0 0.413316 0.0625556 0.270242 0.173905 0.164752C0.285255 0.0592632 0.436278 0 0.59375 0H2.375C2.50744 3.46629e-05 2.63607 0.0420195 2.74043 0.119278C2.84479 0.196536 2.91889 0.304632 2.95094 0.426375L3.43188 2.25H17.2188C17.3059 2.25008 17.392 2.26834 17.4709 2.30349C17.5498 2.33865 17.6196 2.38983 17.6752 2.4534C17.7309 2.51698 17.7711 2.59138 17.7929 2.67133C17.8148 2.75128 17.8179 2.83482 17.8018 2.916L16.0206 11.916C15.9951 12.0449 15.9229 12.1613 15.8164 12.2451C15.71 12.3289 15.5759 12.3749 15.4375 12.375H4.75C4.61158 12.3749 4.47755 12.3289 4.37108 12.2451C4.26462 12.1613 4.19241 12.0449 4.16694 11.916L2.38687 2.93288L1.91188 1.125H0.59375C0.436278 1.125 0.285255 1.06574 0.173905 0.960248C0.0625556 0.854758 0 0.711684 0 0.5625ZM3.68362 3.375L5.24281 11.25H14.9447L16.5039 3.375H3.68362ZM5.9375 12.375C5.30761 12.375 4.70352 12.6121 4.25812 13.034C3.81272 13.456 3.5625 14.0283 3.5625 14.625C3.5625 15.2217 3.81272 15.794 4.25812 16.216C4.70352 16.6379 5.30761 16.875 5.9375 16.875C6.56739 16.875 7.17148 16.6379 7.61688 16.216C8.06228 15.794 8.3125 15.2217 8.3125 14.625C8.3125 14.0283 8.06228 13.456 7.61688 13.034C7.17148 12.6121 6.56739 12.375 5.9375 12.375ZM14.25 12.375C13.6201 12.375 13.016 12.6121 12.5706 13.034C12.1252 13.456 11.875 14.0283 11.875 14.625C11.875 15.2217 12.1252 15.794 12.5706 16.216C13.016 16.6379 13.6201 16.875 14.25 16.875C14.8799 16.875 15.484 16.6379 15.9294 16.216C16.3748 15.794 16.625 15.2217 16.625 14.625C16.625 14.0283 16.3748 13.456 15.9294 13.034C15.484 12.6121 14.8799 12.375 14.25 12.375ZM5.9375 13.5C6.25244 13.5 6.55449 13.6185 6.77719 13.8295C6.99989 14.0405 7.125 14.3266 7.125 14.625C7.125 14.9234 6.99989 15.2095 6.77719 15.4205C6.55449 15.6315 6.25244 15.75 5.9375 15.75C5.62256 15.75 5.32051 15.6315 5.09781 15.4205C4.87511 15.2095 4.75 14.9234 4.75 14.625C4.75 14.3266 4.87511 14.0405 5.09781 13.8295C5.32051 13.6185 5.62256 13.5 5.9375 13.5ZM14.25 13.5C14.5649 13.5 14.867 13.6185 15.0897 13.8295C15.3124 14.0405 15.4375 14.3266 15.4375 14.625C15.4375 14.9234 15.3124 15.2095 15.0897 15.4205C14.867 15.6315 14.5649 15.75 14.25 15.75C13.9351 15.75 13.633 15.6315 13.4103 15.4205C13.1876 15.2095 13.0625 14.9234 13.0625 14.625C13.0625 14.3266 13.1876 14.0405 13.4103 13.8295C13.633 13.6185 13.9351 13.5 14.25 13.5V13.5Z" fill="#473209"/>
</svg>
